PathFileType	4	(X/Y/Z)	Patient4_TMGait_0pt6_01_right_09.trc.trc
DataRate	CameraRate	NumFrames	NumMarkers	Units	OrigDataRate	OrigDataStartFrame	OrigNumFrames
81.395348837209	81.395348837209	4	33	mm	81.395348837209	124	       141
Frame#	Time	Sacral			L.Shoulder			Chest			R.Shoulder			Neck			R.ASIS			L.ASIS			R.Thigh.Superior			R.Thigh.Lateral			R.Thigh.Inferior			R.Patella			L.Thigh.Superior			L.Thigh.Lateral			L.Thigh.Inferior			L.Patella			L.Shank.Superior			L.Shank.Lateral			L.Shank.Inferior			R.Shank.Superior			R.Shank.Lateral			R.Shank.Inferior			R.Heel			R.Midfoot.Superior			R.Midfoot.Lateral			R.Toe			L.Heel			L.Midfoot.Lateral			L.Midfoot.Superior			L.Toe			L.Elbow			L.Wrist			R.Elbow			R.Wrist			
		X1	Y1	Z1	X2	Y2	Z2	X3	Y3	Z3	X4	Y4	Z4	X5	Y5	Z5	X6	Y6	Z6	X7	Y7	Z7	X8	Y8	Z8	X9	Y9	Z9	X10	Y10	Z10	X11	Y11	Z11	X12	Y12	Z12	X13	Y13	Z13	X14	Y14	Z14	X15	Y15	Z15	X16	Y16	Z16	X17	Y17	Z17	X18	Y18	Z18	X19	Y19	Z19	X20	Y20	Z20	X21	Y21	Z21	X22	Y22	Z22	X23	Y23	Z23	X24	Y24	Z24	X25	Y25	Z25	X26	Y26	Z26	X27	Y27	Z27	X28	Y28	Z28	X29	Y29	Z29	X30	Y30	Z30	X31	Y31	Z31	X32	Y32	Z32	X33	Y33	Z33	

124	11.841142857143	635.943924388007	986.652242375337	440.683976963162	792.251614207589	1418.745077114703	256.832330673552	888.866164245411	1360.838086278186	425.271483996572	791.669824445609	1434.234298019824	591.300772091886	765.169780962756	1482.914394123424	406.697979118529	862.172257392263	928.890105326577	563.024630674679	855.031079411689	961.512596837002	287.779005837428	939.090079849750	756.564432773332	535.130567253417	892.032588685438	631.208787647465	602.316663868376	985.742982221211	598.388861931642	526.582887601142	1015.084341504974	509.996811385240	539.951723402235	858.494476271933	731.540978570340	311.189649828032	737.944260012415	636.615896518286	254.982491527436	798.747172380016	543.054944377016	316.963934035943	782.548687563783	475.362427767384	327.735655186981	748.735108698173	409.693799948918	321.314811242800	642.978858024046	305.001822335947	279.677821695512	688.309248184358	190.792451466225	351.921625126631	993.922564778946	419.216482846097	547.322166466871	930.280824104230	308.929243838638	605.633368557963	992.510744534510	219.184172072157	553.381634073875	885.786234562624	41.940758090125	519.844952799309	1050.685901238047	105.178545679024	564.601323875151	966.195397823498	37.933804410053	597.527774832594	1171.164960577231	60.998984521865	597.302895434930	553.701151776528	38.438995742439	406.081645195834	624.369844462007	33.830721177063	322.365984782518	708.185857907287	96.322682780338	343.934590515246	835.148257770974	47.120032764145	313.781884705655	859.949534600519	1075.466580497678	132.935074918107	1106.898719301997	999.558869877716	151.893550278481	646.926303433342	1132.036569151813	715.871062290897	611.225282872332	874.123367867679	740.051008645955	
125	11.853428571429	637.170159204901	986.299798511973	442.849056398013	792.944834459495	1418.150524394428	258.208320068642	889.906583724662	1360.490071311888	426.537944312988	792.748058777774	1433.752202355590	592.691721972233	766.136370414057	1482.451076987135	408.068070244585	863.953365730607	928.375597012135	564.441025125647	855.985154579354	960.632457810495	289.358428792408	941.038964651578	755.022940520420	535.798452456654	892.137495999291	629.923011381937	601.897394853587	985.367561571328	596.578493344700	525.999776147383	1013.170132180099	507.494817865618	538.525856130040	858.881750229835	730.541153170948	312.358855328923	737.623149976059	636.118229534615	256.704317857491	798.499287163989	542.043154597080	318.097047893455	781.952483141902	473.776063084912	328.841724372815	746.920423513634	408.563423172800	322.385646283551	639.310952637251	305.724232456739	280.683782299623	682.892096566441	190.451433770558	352.211907550739	991.009273753213	416.576019634377	546.144250955558	926.288956959425	307.148659910676	604.787323543914	986.257576601655	216.527819338549	551.737592481731	876.067229081523	41.724461125071	518.967275711430	1042.097713474827	102.464545017220	562.500411764672	956.620173291044	37.192636869407	596.594003637125	1162.314723889165	56.507086695218	595.259182200011	546.258878350081	39.036825109661	405.861745582816	617.057775905848	33.978785416610	322.380894031952	701.145582721096	96.251322847398	343.861109816034	827.989760312245	46.322053825317	313.712331755138	858.767242219024	1074.279281249661	134.272560044330	1104.528960686386	993.719069476510	152.281533204298	650.163535634313	1130.403805671301	717.741110195428	617.424787632133	872.012551216098	742.118642543238	
126	11.865714285714	638.406311077251	986.165104680039	445.222902027817	793.601445912517	1417.806560942176	259.687096988803	891.035841806564	1360.335356151522	427.820620754415	794.050793595402	1433.431926855204	594.189779511799	767.183567429854	1482.221803322145	409.547313576448	865.823867905621	928.126559981778	565.891492661009	856.941788600929	959.939401584144	290.984411058691	942.958638099088	753.697914600501	536.388570156716	892.407473911222	629.038301554847	601.744967417207	984.901356599276	595.021234010666	525.423697304096	1011.327362818846	505.352280971129	537.280371823010	859.424272173288	729.766066014132	313.590148292456	737.576392087322	635.686666726916	258.541202338108	798.777600687138	541.135957203365	319.218300771085	782.010399272422	472.161804327779	329.791375776388	745.537341276683	407.470273187454	323.411167623816	635.915297541375	306.675171504649	281.766337568336	677.660576932899	190.260856906950	352.443955045008	988.201827309289	414.308419356865	545.190404082705	922.592396319107	305.710224798853	604.317311766999	980.237483016998	214.240783526168	550.410151289483	866.692678231089	41.615216513125	518.441854855074	1033.668367344817	100.351958855865	560.879890481581	947.363950356832	36.720962816466	596.054382045092	1153.700243451429	52.846787380363	593.782742131302	538.835693709889	40.001728070632	405.619892317973	609.768050168192	34.247150561227	322.402662396906	694.243982609910	96.223706476803	343.700093053958	820.889956268529	45.394331748152	313.623853845913	857.388509072255	1073.234560164381	135.834773136605	1101.515716375828	986.833957946814	152.710493026633	654.188354168637	1128.565813244581	719.720438596845	625.061997277640	869.576158665757	744.117415971601	
127	11.878000000000	639.638356566029	986.281717188981	447.779744561199	794.232430516550	1417.744517008092	261.249850488719	892.238915881723	1360.393862177633	429.108508156967	795.571384197237	1433.323401773232	595.771034792891	768.302943759227	1482.258096637404	411.113750236814	867.720421964033	928.179190246398	567.410721690592	857.878064579032	959.475564719320	292.668534862141	944.698479196636	752.646680525591	536.960188758595	892.780354988171	628.572647634124	601.934363032735	984.290589875191	593.755571701516	524.954990608811	1009.493768686358	503.616012520808	536.336394262611	860.149797102782	729.271089515195	314.897910932042	737.900410237535	635.327951223787	260.454208154574	799.707483122906	540.364929367500	320.294553107622	782.870538503896	470.545314387389	330.497522533934	744.703580786207	406.433850152005	324.328320553346	632.897099552779	307.907075246910	282.889141227211	672.692532049313	190.274444027453	352.583712061344	985.476028858733	412.460071991020	544.527529751373	919.178401119867	304.624974010918	604.221918686496	974.530710481323	212.379084303953	549.427236079717	857.874269920586	41.591198450145	518.216037606239	1025.568794554839	98.867103254874	559.725606188526	938.633544343565	36.476729771186	595.841931993623	1145.497959098673	50.068833920879	592.848848915119	531.475589806473	41.473560905898	405.357475942929	602.520144998729	34.708598235472	322.425979495800	687.539147480126	96.256922539979	343.426122078898	813.842978526068	44.352345008874	313.520479774507	855.842431385154	1072.378868838254	137.638299650654	1097.780310711094	978.965678722957	153.179150024235	658.963095825614	1126.624005249077	721.803708943374	634.114160025651	866.947289927749	746.047766076716	
